# xmcd
#
# Track frame offsets:
# 150
# 16472
# 35570
# 59215
# 75917
# 95192
# 114445
# 133217
# 151495
# 173542
# 189862
# 212327
# 232045
# 250782
#
# Disc length: 3610 seconds
#
#
# Revision: 0
# Processed by: cddbd v1.5.1PL2 Copyright (c) Steve Scherf et al.
# Submitted via: FreeRIP 2.944 
#
DISCID=b70e180e
DTITLE=Fagner - Suas Músicas e Seus Amigos
DYEAR=0098
DGENRE=Other
TTITLE0=Mucuripe
TTITLE1=Revelação
TTITLE2=Noturno ( Ao Vivo )
TTITLE3=Fanatismo
TTITLE4=Eternas Ondas ( c/ Fábio Junior )
TTITLE5=Guerreiro Menino
TTITLE6=Deslizes
TTITLE7=Espumas ao Vento
TTITLE8=Amor Escondido
TTITLE9=As Rosas Não Falam
TTITLE10=Jura Secreta
TTITLE11=Semente
TTITLE12=Quem Me Levará Sou Eu ( Ao Vivo )
TTITLE13=Dezembros
EXTD=
EXTT0=
EXTT1=
EXTT2=
EXTT3=
EXTT4=
EXTT5=
EXTT6=
EXTT7=
EXTT8=
EXTT9=
EXTT10=
EXTT11=
EXTT12=
EXTT13=
PLAYORDER=
